<?xml version="1.0" encoding="UTF-8"?>
<svg width="128" height="128" viewBox="0 0 128 128" xmlns="http://www.w3.org/2000/svg">
  <defs>
    <linearGradient id="gradient" x1="0%" y1="0%" x2="100%" y2="100%">
      <stop offset="0%" style="stop-color:#667eea;stop-opacity:1" />
      <stop offset="100%" style="stop-color:#764ba2;stop-opacity:1" />
    </linearGradient>
  </defs>
  
  <!-- Background circle -->
  <circle cx="64" cy="64" r="58" fill="url(#gradient)" stroke="#fff" stroke-width="4"/>
  
  <!-- Robot/AI icon -->
  <g transform="translate(32, 28)">
    <!-- Head -->
    <rect x="12" y="8" width="40" height="32" rx="8" fill="#fff"/>
    <!-- Eyes -->
    <circle cx="22" cy="20" r="4" fill="#667eea"/>
    <circle cx="42" cy="20" r="4" fill="#667eea"/>
    <!-- Mouth -->
    <rect x="26" y="28" width="12" height="2" rx="1" fill="#667eea"/>
    
    <!-- Body -->
    <rect x="16" y="44" width="32" height="36" rx="6" fill="#fff"/>
    <!-- Chest panel -->
    <rect x="20" y="48" width="24" height="16" rx="2" fill="#f0f0f0"/>
    <!-- Buttons -->
    <circle cx="26" cy="52" r="2" fill="#667eea"/>
    <circle cx="38" cy="52" r="2" fill="#667eea"/>
    
    <!-- Arms -->
    <rect x="4" y="48" width="8" height="20" rx="4" fill="#fff"/>
    <rect x="52" y="48" width="8" height="20" rx="4" fill="#fff"/>
  </g>
  
  <!-- Scraping/data lines -->
  <g opacity="0.7">
    <path d="M 20 100 L 108 100" stroke="#fff" stroke-width="2"/>
    <path d="M 24 106 L 104 106" stroke="#fff" stroke-width="1"/>
    <path d="M 28 112 L 100 112" stroke="#fff" stroke-width="1"/>
  </g>
</svg>